<svg xmlns="http://www.w3.org/2000/svg" viewBox="0 0 650 180" font-family="Segoe UI, Arial, sans-serif">
  <text x="325" y="25" text-anchor="middle" font-size="14" font-weight="bold" fill="#333">Q9: Episode with Loop — State Visited Twice</text>
  <circle cx="80" cy="90" r="25" fill="#d1fae5" stroke="#065f46" stroke-width="2"/>
  <text x="80" y="88" text-anchor="middle" font-size="11" font-weight="bold" fill="#065f46">A</text>
  <text x="80" y="102" text-anchor="middle" font-size="9" fill="#065f46">t=0</text>
  <circle cx="200" cy="90" r="25" fill="#dbeafe" stroke="#1e40af" stroke-width="2"/>
  <text x="200" y="88" text-anchor="middle" font-size="11" font-weight="bold" fill="#1e40af">B</text>
  <text x="200" y="102" text-anchor="middle" font-size="9" fill="#1e40af">t=1</text>
  <circle cx="320" cy="90" r="25" fill="#d1fae5" stroke="#065f46" stroke-width="2"/>
  <text x="320" y="88" text-anchor="middle" font-size="11" font-weight="bold" fill="#065f46">A</text>
  <text x="320" y="102" text-anchor="middle" font-size="9" fill="#065f46">t=2</text>
  <circle cx="440" cy="90" r="25" fill="#dbeafe" stroke="#1e40af" stroke-width="2"/>
  <text x="440" y="88" text-anchor="middle" font-size="11" font-weight="bold" fill="#1e40af">B</text>
  <text x="440" y="102" text-anchor="middle" font-size="9" fill="#1e40af">t=3</text>
  <circle cx="570" cy="90" r="25" fill="#fee2e2" stroke="#dc2626" stroke-width="2" stroke-dasharray="5,3"/>
  <text x="570" y="93" text-anchor="middle" font-size="10" fill="#dc2626">Term</text>
  <line x1="105" y1="90" x2="170" y2="90" stroke="#475569" stroke-width="2" marker-end="url(#a9)"/>
  <text x="138" y="78" text-anchor="middle" font-size="10" fill="#059669">r=+1</text>
  <line x1="225" y1="90" x2="290" y2="90" stroke="#475569" stroke-width="2" marker-end="url(#a9)"/>
  <text x="258" y="78" text-anchor="middle" font-size="10" fill="#059669">r=+2</text>
  <line x1="345" y1="90" x2="410" y2="90" stroke="#475569" stroke-width="2" marker-end="url(#a9)"/>
  <text x="378" y="78" text-anchor="middle" font-size="10" fill="#059669">r=+1</text>
  <line x1="465" y1="90" x2="540" y2="90" stroke="#475569" stroke-width="2" marker-end="url(#a9)"/>
  <text x="503" y="78" text-anchor="middle" font-size="10" fill="#059669">r=+3</text>
  <rect x="60" y="135" width="530" height="30" rx="5" fill="#fef3c7" stroke="#f59e0b"/>
  <text x="325" y="154" text-anchor="middle" font-size="10" fill="#92400e">γ = 0.8 | A visited at t=0,2 | B visited at t=1,3 | Compare first-visit vs every-visit</text>
  <defs><marker id="a9" markerWidth="8" markerHeight="8" refX="8" refY="4" orient="auto"><path d="M0,0 L8,4 L0,8 Z" fill="#475569"/></marker></defs>
</svg>
